<?xml version="1.0" encoding="UTF-8" standalone="no"?>
<!-- Created with Inkscape (http://www.inkscape.org/) -->

<svg
   version="1.1"
   id="svg2"
   width="3200"
   height="2400"
   viewBox="0 0 3200 2400"
   sodipodi:docname="Vector4free-Geometric-Seamless-Pattern-Revisi2-DP1122.eps"
   xmlns:inkscape="http://www.inkscape.org/namespaces/inkscape"
   xmlns:sodipodi="http://sodipodi.sourceforge.net/DTD/sodipodi-0.dtd"
   xmlns="http://www.w3.org/2000/svg"
   xmlns:svg="http://www.w3.org/2000/svg">
  <defs
     id="defs6" />
  <sodipodi:namedview
     id="namedview4"
     pagecolor="#ffffff"
     bordercolor="#000000"
     borderopacity="0.25"
     inkscape:showpageshadow="2"
     inkscape:pageopacity="0.0"
     inkscape:pagecheckerboard="0"
     inkscape:deskcolor="#d1d1d1" />
  <g
     id="g8"
     inkscape:groupmode="layer"
     inkscape:label="ink_ext_XXXXXX"
     transform="matrix(1.3333333,0,0,-1.3333333,0,2400)">
    <g
       id="g10"
       transform="scale(0.1)">
      <path
         d="M 24000,0 H 0 V 18000 H 24000 V 0"
         style="fill:#fdfce0;fill-opacity:1;fill-rule:nonzero;stroke:none"
         id="path12" />
      <path
         d="m 20360.2,19391.7 -864.7,-2494.3 2494.4,-864.7 864.6,2494.4 -2494.3,864.6"
         style="fill:#e397b3;fill-opacity:1;fill-rule:nonzero;stroke:none"
         id="path14" />
      <path
         d="m 19810.8,17349 1833,-635.4 635.4,1833 -1833,635.4 z m 2049,-1080.7 -2494.3,864.6 864.6,2494.4 2494.4,-864.7 -864.7,-2494.3"
         style="fill:#000000;fill-opacity:1;fill-rule:nonzero;stroke:none"
         id="path16" />
      <path
         d="m 16745,18710 c -554.2,0 -1005,-450.8 -1005,-1005 0,-554.2 450.8,-1005 1005,-1005 554.2,0 1005,450.8 1005,1005 0,554.2 -450.8,1005 -1005,1005 z m 0,-2360 c -747.1,0 -1355,607.9 -1355,1355 0,747.1 607.9,1355 1355,1355 747.1,0 1355,-607.9 1355,-1355 0,-747.1 -607.9,-1355 -1355,-1355"
         style="fill:#ef2e5a;fill-opacity:1;fill-rule:nonzero;stroke:none"
         id="path18" />
      <path
         d="m 16545,18890 c -554.2,0 -1005,-450.8 -1005,-1005 0,-554.2 450.8,-1005 1005,-1005 554.2,0 1005,450.8 1005,1005 0,554.2 -450.8,1005 -1005,1005 z m 0,-2360 c -747.1,0 -1355,607.9 -1355,1355 0,747.1 607.9,1355 1355,1355 747.1,0 1355,-607.9 1355,-1355 0,-747.1 -607.9,-1355 -1355,-1355"
         style="fill:#000000;fill-opacity:1;fill-rule:nonzero;stroke:none"
         id="path20" />
      <path
         d="m 16475,11550 c -554.2,0 -1005,-450.8 -1005,-1005 0,-554.16 450.8,-1005 1005,-1005 554.2,0 1005,450.84 1005,1005 0,554.2 -450.8,1005 -1005,1005 z m 0,-2360 c -747.1,0 -1355,607.85 -1355,1355 0,747.2 607.9,1355 1355,1355 747.1,0 1355,-607.8 1355,-1355 0,-747.15 -607.9,-1355 -1355,-1355"
         style="fill:#ef2e5a;fill-opacity:1;fill-rule:nonzero;stroke:none"
         id="path22" />
      <path
         d="m 16275,11730 c -554.2,0 -1005,-450.8 -1005,-1005 0,-554.2 450.8,-1005 1005,-1005 554.2,0 1005,450.8 1005,1005 0,554.2 -450.8,1005 -1005,1005 z m 0,-2360 c -747.1,0 -1355,607.85 -1355,1355 0,747.2 607.9,1355 1355,1355 747.1,0 1355,-607.8 1355,-1355 0,-747.15 -607.9,-1355 -1355,-1355"
         style="fill:#000000;fill-opacity:1;fill-rule:nonzero;stroke:none"
         id="path24" />
      <path
         d="m 730,5670 c 0,-359 -291.016,-650 -650,-650 -358.984,0 -650,291 -650,650 0,359 291.016,650 650,650 358.984,0 650,-291 650,-650"
         style="fill:#4bc0d2;fill-opacity:1;fill-rule:nonzero;stroke:none"
         id="path26" />
      <path
         d="m 1430,5675 h -350 c 0,554.2 -450.84,1005 -1005,1005 -554.16,0 -1005,-450.8 -1005,-1005 h -350 c 0,747.1 607.852,1355 1355,1355 747.148,0 1355,-607.9 1355,-1355"
         style="fill:#000000;fill-opacity:1;fill-rule:nonzero;stroke:none"
         id="path28" />
      <path
         d="m 995.566,14725.5 -2073.536,-2406 3120.4,-592.8 z"
         style="fill:#4bc0d2;fill-opacity:1;fill-rule:nonzero;stroke:none"
         id="path30" />
      <path
         d="m -624.887,12742.3 1929.277,-366.4 -647.249,1854 z m 2459.527,-823.4 -3120.42,592.7 2073.553,2406 1046.867,-2998.7"
         style="fill:#000000;fill-opacity:1;fill-rule:nonzero;stroke:none"
         id="path32" />
      <path
         d="m 9225.42,18312.6 -182.45,298.7 -1244.57,-760.3 -760.29,1244.6 -298.68,-182.5 760.29,-1244.5 -1244.56,-760.3 182.45,-298.7 1244.57,760.3 760.29,-1244.6 298.67,182.5 -760.29,1244.5 1244.57,760.3"
         style="fill:#ef2e5a;fill-opacity:1;fill-rule:nonzero;stroke:none"
         id="path34" />
      <path
         d="m 9174.84,18571.7 -182.45,298.7 -1244.57,-760.3 -760.29,1244.6 -298.67,-182.5 760.29,-1244.5 -1244.57,-760.3 182.45,-298.7 1244.57,760.3 760.29,-1244.6 298.68,182.5 -760.29,1244.5 1244.56,760.3"
         style="fill:#000000;fill-opacity:1;fill-rule:nonzero;stroke:none"
         id="path36" />
      <path
         d="m 1989.46,17061.5 -1238.616,157.6 44.172,347.2 1012.014,-128.8 584.08,972.5 1125.37,-143.1 525.32,874.6 300.05,-180.3 -642.94,-1070.4 -1125.37,143.2 -584.08,-972.5"
         style="fill:#fddc01;fill-opacity:1;fill-rule:nonzero;stroke:none"
         id="path38" />
      <path
         d="m 2587.45,15828.9 -1238.61,157.6 44.17,347.2 1012.01,-128.8 584.08,972.5 1125.38,-143.1 525.31,874.6 300.05,-180.3 -642.94,-1070.4 -1125.37,143.2 -584.08,-972.5"
         style="fill:#fddc01;fill-opacity:1;fill-rule:nonzero;stroke:none"
         id="path40" />
      <path
         d="m 1826.08,17237.9 -1238.607,157.6 44.172,347.2 1012.015,-128.8 584.08,972.5 1125.37,-143.2 525.32,874.6 300.04,-180.2 -642.93,-1070.4 -1125.37,143.2 -584.09,-972.5"
         style="fill:#000000;fill-opacity:1;fill-rule:nonzero;stroke:none"
         id="path42" />
      <path
         d="m 2424.08,16005.3 -1238.62,157.6 44.17,347.2 1012.02,-128.8 584.08,972.5 1125.37,-143.2 525.32,874.6 300.04,-180.2 -642.93,-1070.4 -1125.37,143.2 -584.08,-972.5"
         style="fill:#000000;fill-opacity:1;fill-rule:nonzero;stroke:none"
         id="path44" />
      <path
         d="m 7619.46,13501.5 -1238.62,157.6 44.17,347.2 1012.02,-128.8 584.08,972.5 1125.37,-143.1 525.32,874.6 300.05,-180.2 -642.94,-1070.5 -1125.37,143.2 -584.08,-972.5"
         style="fill:#fddc01;fill-opacity:1;fill-rule:nonzero;stroke:none"
         id="path46" />
      <path
         d="m 8217.45,12268.9 -1238.61,157.6 44.17,347.2 1012.01,-128.8 584.08,972.5 1125.38,-143.1 525.32,874.6 300,-180.3 -642.9,-1070.4 -1125.37,143.2 -584.08,-972.5"
         style="fill:#fddc01;fill-opacity:1;fill-rule:nonzero;stroke:none"
         id="path48" />
      <path
         d="m 7456.08,13677.9 -1238.61,157.6 44.18,347.2 1012.01,-128.8 584.08,972.5 1125.37,-143.1 525.32,874.5 300.04,-180.2 -642.93,-1070.4 -1125.37,143.2 -584.09,-972.5"
         style="fill:#000000;fill-opacity:1;fill-rule:nonzero;stroke:none"
         id="path50" />
      <path
         d="m 8054.08,12445.3 -1238.62,157.6 44.17,347.2 1012.02,-128.8 584.08,972.5 1125.37,-143.2 525.3,874.6 300.1,-180.2 -642.97,-1070.4 -1125.37,143.2 -584.08,-972.5"
         style="fill:#000000;fill-opacity:1;fill-rule:nonzero;stroke:none"
         id="path52" />
      <path
         d="m 1263.88,10307.3 -2459.4,-549.37 -76.29,341.57 2459.4,549.3 76.29,-341.5"
         style="fill:#e397b3;fill-opacity:1;fill-rule:nonzero;stroke:none"
         id="path54" />
      <path
         d="m 1541.24,9088.41 -2459.4,-549.33 -76.293,341.58 2459.403,549.33 76.29,-341.58"
         style="fill:#e397b3;fill-opacity:1;fill-rule:nonzero;stroke:none"
         id="path56" />
      <path
         d="m 1029.45,10439.3 -2459.4,-549.29 -76.29,341.59 2459.4,549.3 76.29,-341.6"
         style="fill:#000000;fill-opacity:1;fill-rule:nonzero;stroke:none"
         id="path58" />
      <path
         d="m 1306.81,9220.48 -2459.4,-549.32 -76.29,341.58 2459.4,549.33 76.29,-341.59"
         style="fill:#000000;fill-opacity:1;fill-rule:nonzero;stroke:none"
         id="path60" />
      <path
         d="m 12635.4,19352.8 -1458.8,-514.9 -283.5,-1521 1175.5,-1005.8 1458.7,514.9 283.5,1520.9 -1175.4,1005.9"
         style="fill:#fddc01;fill-opacity:1;fill-rule:nonzero;stroke:none"
         id="path62" />
      <path
         d="m 11818.6,16784.9 1077.8,380.4 209.4,1123.6 -868.4,743.1 -1077.7,-380.4 -209.4,-1123.6 z m 1384.8,117.6 -1458.8,-514.9 -1175.4,1005.9 283.4,1520.9 1458.9,514.9 1175.4,-1005.9 -283.5,-1520.9"
         style="fill:#000000;fill-opacity:1;fill-rule:nonzero;stroke:none"
         id="path64" />
      <path
         d="m 20360.2,1391.7 -864.7,-2494.3 2494.4,-864.7 864.6,2494.402 -2494.3,864.598"
         style="fill:#e397b3;fill-opacity:1;fill-rule:nonzero;stroke:none"
         id="path66" />
      <path
         d="m 19810.8,-651 1833,-635.4 635.4,1833.002 -1833,635.398 z m 2049,-1080.7 -2494.3,864.602 864.6,2494.398 2494.4,-864.698 -864.7,-2494.302"
         style="fill:#000000;fill-opacity:1;fill-rule:nonzero;stroke:none"
         id="path68" />
      <path
         d="m 16745,710 c -554.2,0 -1005,-450.797 -1005,-1005 0,-554.199 450.8,-1005 1005,-1005 554.2,0 1005,450.801 1005,1005 0,554.203 -450.8,1005 -1005,1005 z m 0,-2360 c -747.1,0 -1355,607.9 -1355,1355 0,747.102 607.9,1355 1355,1355 747.1,0 1355,-607.898 1355,-1355 0,-747.1 -607.9,-1355 -1355,-1355"
         style="fill:#ef2e5a;fill-opacity:1;fill-rule:nonzero;stroke:none"
         id="path70" />
      <path
         d="m 16545,890 c -554.2,0 -1005,-450.797 -1005,-1005 0,-554.199 450.8,-1005 1005,-1005 554.2,0 1005,450.801 1005,1005 0,554.203 -450.8,1005 -1005,1005 z m 0,-2360 c -747.1,0 -1355,607.902 -1355,1355 0,747.102 607.9,1355 1355,1355 747.1,0 1355,-607.898 1355,-1355 0,-747.098 -607.9,-1355 -1355,-1355"
         style="fill:#000000;fill-opacity:1;fill-rule:nonzero;stroke:none"
         id="path72" />
      <path
         d="M 9225.42,312.602 9042.97,611.301 7798.4,-149 7038.11,1095.6 6739.43,913.102 l 760.29,-1244.5 -1244.56,-760.302 182.45,-298.7 1244.57,760.302 760.29,-1244.602 298.67,182.5 -760.29,1244.501 1244.57,760.301"
         style="fill:#ef2e5a;fill-opacity:1;fill-rule:nonzero;stroke:none"
         id="path74" />
      <path
         d="M 9174.84,571.703 8992.39,870.402 7747.82,110.102 6987.53,1354.7 6688.86,1172.2 7449.15,-72.3008 6204.58,-832.598 6387.03,-1131.3 7631.6,-371 l 760.29,-1244.6 298.68,182.5 -760.29,1244.502 1244.56,760.301"
         style="fill:#000000;fill-opacity:1;fill-rule:nonzero;stroke:none"
         id="path76" />
      <path
         d="m 5485.42,10912.6 -182.45,298.7 -1244.57,-760.3 -760.29,1244.6 -298.68,-182.5 760.29,-1244.5 -1244.56,-760.33 182.45,-298.69 1244.57,760.29 760.29,-1244.57 298.67,182.46 -760.29,1244.54 1244.57,760.3"
         style="fill:#437ef2;fill-opacity:1;fill-rule:nonzero;stroke:none"
         id="path78" />
      <path
         d="m 5434.84,11171.7 -182.45,298.7 -1244.57,-760.3 -760.29,1244.6 -298.67,-182.5 760.29,-1244.5 -1244.57,-760.32 182.45,-298.67 1244.57,760.29 760.29,-1244.58 298.68,182.46 -760.29,1244.52 1244.56,760.3"
         style="fill:#000000;fill-opacity:1;fill-rule:nonzero;stroke:none"
         id="path80" />
      <path
         d="M 1989.46,-938.5 750.844,-780.898 795.016,-433.699 1807.03,-562.5 2391.11,410 3516.48,266.898 4041.8,1141.5 4341.85,961.199 3698.91,-109.199 2573.54,34 1989.46,-938.5"
         style="fill:#fddc01;fill-opacity:1;fill-rule:nonzero;stroke:none"
         id="path82" />
      <path
         d="M 1826.08,-762.098 587.473,-604.5 631.645,-257.301 1643.66,-386.098 2227.74,586.402 3353.11,443.199 3878.43,1317.8 4178.47,1137.6 3535.54,67.1992 2410.17,210.402 l -584.09,-972.5"
         style="fill:#000000;fill-opacity:1;fill-rule:nonzero;stroke:none"
         id="path84" />
      <path
         d="m 2424.08,-1994.7 -1238.62,157.6 44.17,347.2 1012.02,-128.8 584.08,972.501 L 3951.1,-789.398 4476.42,85.1992 4776.46,-95 l -642.93,-1070.4 -1125.37,143.2 -584.08,-972.5"
         style="fill:#000000;fill-opacity:1;fill-rule:nonzero;stroke:none"
         id="path86" />
      <path
         d="M 12635.4,1352.8 11176.6,837.902 10893.1,-683 12068.6,-1688.9 13527.3,-1174 13810.8,346.898 12635.4,1352.8"
         style="fill:#fddc01;fill-opacity:1;fill-rule:nonzero;stroke:none"
         id="path88" />
      <path
         d="m 11818.6,-1215.1 1077.8,380.401 209.4,1123.601 L 12237.4,1032 11159.7,651.602 10950.3,-472 Z m 1384.8,117.6 -1458.8,-514.9 -1175.4,1005.9 283.4,1520.898 1458.9,514.902 1175.4,-1005.898 -283.5,-1520.902"
         style="fill:#000000;fill-opacity:1;fill-rule:nonzero;stroke:none"
         id="path90" />
      <path
         d="M 565.391,3832.8 -893.391,3317.9 -1176.9,1797 -1.44141,791.102 1457.34,1306 1740.85,2826.9 565.391,3832.8"
         style="fill:#437ef2;fill-opacity:1;fill-rule:nonzero;stroke:none"
         id="path92" />
      <path
         d="M -251.379,1264.9 826.379,1645.3 1035.78,2768.9 167.434,3512 -910.32,3131.6 -1119.73,2008 Z M 1133.43,1382.5 -325.422,867.602 -1500.82,1873.5 -1217.37,3394.4 241.477,3909.3 1416.88,2903.4 1133.43,1382.5"
         style="fill:#000000;fill-opacity:1;fill-rule:nonzero;stroke:none"
         id="path94" />
      <path
         d="m 24730,5670 c 0,-359 -291,-650 -650,-650 -359,0 -650,291 -650,650 0,359 291,650 650,650 359,0 650,-291 650,-650"
         style="fill:#4bc0d2;fill-opacity:1;fill-rule:nonzero;stroke:none"
         id="path96" />
      <path
         d="m 25430,5675 h -350 c 0,554.2 -450.8,1005 -1005,1005 -554.2,0 -1005,-450.8 -1005,-1005 h -350 c 0,747.1 607.9,1355 1355,1355 747.1,0 1355,-607.9 1355,-1355"
         style="fill:#000000;fill-opacity:1;fill-rule:nonzero;stroke:none"
         id="path98" />
      <path
         d="m 22488.4,14215.3 c 80.6,-349.8 -137.7,-698.7 -487.5,-779.3 -349.8,-80.6 -698.7,137.6 -779.3,487.5 -80.6,349.8 137.6,698.7 487.4,779.3 349.9,80.6 698.8,-137.7 779.4,-487.5"
         style="fill:#4bc0d2;fill-opacity:1;fill-rule:nonzero;stroke:none"
         id="path100" />
      <path
         d="m 23169.4,14377.3 -341.1,-78.5 c -124.4,540 -664.9,878.1 -1205,753.7 -540,-124.4 -878.1,-665 -753.7,-1205 l -341,-78.6 c -167.8,728.1 288.1,1456.9 1016.2,1624.6 728.1,167.8 1456.9,-288.1 1624.6,-1016.2"
         style="fill:#000000;fill-opacity:1;fill-rule:nonzero;stroke:none"
         id="path102" />
      <path
         d="m 24995.6,14725.5 -2073.6,-2406 3120.4,-592.8 z"
         style="fill:#4bc0d2;fill-opacity:1;fill-rule:nonzero;stroke:none"
         id="path104" />
      <path
         d="m 23375.1,12742.3 1929.3,-366.4 -647.3,1854 z m 2459.5,-823.4 -3120.4,592.7 2073.6,2406 1046.8,-2998.7"
         style="fill:#000000;fill-opacity:1;fill-rule:nonzero;stroke:none"
         id="path106" />
      <path
         d="m 25263.9,10307.3 -2459.4,-549.37 -76.3,341.57 2459.4,549.3 76.3,-341.5"
         style="fill:#e397b3;fill-opacity:1;fill-rule:nonzero;stroke:none"
         id="path108" />
      <path
         d="m 25541.2,9088.41 -2459.4,-549.33 -76.3,341.58 2459.5,549.33 76.2,-341.58"
         style="fill:#e397b3;fill-opacity:1;fill-rule:nonzero;stroke:none"
         id="path110" />
      <path
         d="m 25029.5,10439.3 -2459.5,-549.29 -76.2,341.59 2459.4,549.3 76.3,-341.6"
         style="fill:#000000;fill-opacity:1;fill-rule:nonzero;stroke:none"
         id="path112" />
      <path
         d="m 25306.8,9220.48 -2459.4,-549.32 -76.3,341.58 2459.4,549.33 76.3,-341.59"
         style="fill:#000000;fill-opacity:1;fill-rule:nonzero;stroke:none"
         id="path114" />
      <path
         d="M 24565.4,3832.8 23106.6,3317.9 22823.1,1797 23998.6,791.102 25457.3,1306 l 283.5,1520.9 -1175.4,1005.9"
         style="fill:#437ef2;fill-opacity:1;fill-rule:nonzero;stroke:none"
         id="path116" />
      <path
         d="m 23748.6,1264.9 1077.8,380.4 209.4,1123.6 -868.4,743.1 -1077.7,-380.4 -209.4,-1123.6 z m 1384.8,117.6 -1458.8,-514.898 -1175.4,1005.898 283.4,1520.9 1458.9,514.9 1175.4,-1005.9 -283.5,-1520.9"
         style="fill:#000000;fill-opacity:1;fill-rule:nonzero;stroke:none"
         id="path118" />
      <path
         d="m 3750.09,7356.1 c -620.54,-551 -676.9,-1500.8 -125.89,-2121.3 l 2247.17,1995.4 c -551.01,620.5 -1500.74,676.9 -2121.28,125.9"
         style="fill:#437ef2;fill-opacity:1;fill-rule:nonzero;stroke:none"
         id="path120" />
      <path
         d="m 3062.09,5525.9 1968.29,1747.7 c -495.59,428.8 -1246.39,434.7 -1749.45,-12 C 2777.88,6814.9 2694.95,6068.7 3062.09,5525.9 Z M 5533.07,7251.9 3024.18,5024.2 2907.99,5155 c -614.2,691.7 -551.15,1754.2 140.55,2368.3 691.7,614.25 1754.14,551.19 2368.34,-140.5 l 116.19,-130.9"
         style="fill:#000000;fill-opacity:1;fill-rule:nonzero;stroke:none"
         id="path122" />
      <path
         d="m 20372.2,11828.1 c -721.6,-409.7 -974.5,-1326.9 -564.8,-2048.56 l 2613.4,1483.86 c -409.7,721.6 -1326.9,974.5 -2048.6,564.7"
         style="fill:#437ef2;fill-opacity:1;fill-rule:nonzero;stroke:none"
         id="path124" />
      <path
         d="m 19318.3,10181.3 2289,1299.6 c -395.5,522.6 -1128.6,684.7 -1713.6,352.5 -585.1,-332.1 -821.5,-1044.7 -575.4,-1652.1 z m 2776.1,1173.8 -2917.7,-1656.67 -86.4,152.19 c -456.7,804.38 -173.9,1830.48 630.6,2287.18 804.4,456.7 1830.4,173.9 2287.1,-630.6 l 86.4,-152.1"
         style="fill:#000000;fill-opacity:1;fill-rule:nonzero;stroke:none"
         id="path126" />
      <path
         d="m 18928.6,5772.8 -1989.1,371.2 404.2,2166.1 393.2,-73.38 -330.9,-1772.92 1596,-297.8 -73.4,-393.2"
         style="fill:#e397b3;fill-opacity:1;fill-rule:nonzero;stroke:none"
         id="path128" />
      <path
         d="m 18798.5,6099.6 -1989.1,371.2 404.2,2166.1 393.2,-73.37 -330.9,-1772.83 1596,-297.8 -73.4,-393.3"
         style="fill:#000000;fill-opacity:1;fill-rule:nonzero;stroke:none"
         id="path130" />
      <path
         d="m 7778.91,2008 -729.9,2079.1 377.43,132.5 597.39,-1701.6 1531.82,537.7 132.5,-377.4 L 7778.91,2008"
         style="fill:#e397b3;fill-opacity:1;fill-rule:nonzero;stroke:none"
         id="path132" />
      <path
         d="m 9412.41,2896.7 -1909.24,-670.3 -729.89,2079.1 377.42,132.5 597.39,-1701.7 1531.82,537.8 132.5,-377.4"
         style="fill:#000000;fill-opacity:1;fill-rule:nonzero;stroke:none"
         id="path134" />
      <path
         d="M 8810.87,4416.7 8718.54,7612 6534.52,5277.9 Z"
         style="fill:#4bc0d2;fill-opacity:1;fill-rule:nonzero;stroke:none"
         id="path136" />
      <path
         d="m 8385.23,6381.3 468.83,1239.3 60.84,-2105.3 z m -192.51,-159.3 565.4,-924.5 -1601.13,605.7 z m -38.86,246.8 -970.25,-298.6 1439.08,1538 z M 9074.59,8553.17 6559.12,5864.9 9180.94,4873 9074.59,8553.17"
         style="fill:#000000;fill-opacity:1;fill-rule:nonzero;stroke:none"
         id="path138" />
      <path
         d="m 18445.4,12280.6 -92.3,3195.3 -2184,-2334.1 z"
         style="fill:#4bc0d2;fill-opacity:1;fill-rule:nonzero;stroke:none"
         id="path140" />
      <path
         d="m 18019.8,14245.2 468.8,1239.3 60.9,-2105.3 z m -192.5,-159.3 565.4,-924.5 -1601.1,605.7 z m -38.9,246.8 -970.2,-298.6 1439.1,1538 z m 920.8,2084.4 -2515.5,-2688.3 2621.8,-991.9 -106.3,3680.2"
         style="fill:#000000;fill-opacity:1;fill-rule:nonzero;stroke:none"
         id="path142" />
      <path
         d="m 14798.1,6888.3 c -146.9,-58.1 -303.3,-33.1 -464.7,74.3 -115.7,77.1 -223.6,188 -327.9,295.3 -141.3,145.2 -317.1,326 -413,288 -95.9,-37.9 -100.5,-290 -104.1,-492.6 -2.7,-149.6 -5.5,-304.3 -37.3,-439.7 -44.2,-188.7 -141.2,-313.9 -288.1,-372 -146.8,-58.1 -303.2,-33.1 -464.6,74.3 -115.7,77 -223.6,187.9 -327.9,295.2 -141.3,145.3 -317.1,326 -413,288.1 -95.9,-37.9 -100.4,-290.1 -104.1,-492.6 -2.7,-149.6 -5.5,-304.3 -37.2,-439.7 -44.3,-188.8 -141.2,-314 -288.1,-372.1 -146.9,-58.1 -303.2,-33.1 -464.6,74.4 -115.8,77 -223.7,187.9 -328,295.2 -141.2,145.2 -317,326 -412.9,288.1 l -128.8,325.4 c 146.9,58.1 303.2,33.1 464.7,-74.3 115.7,-77 223.6,-188 327.9,-295.2 141.3,-145.3 317.1,-326 413,-288.1 95.8,37.9 100.4,290 104.1,492.6 2.7,149.6 5.5,304.3 37.2,439.7 44.3,188.8 141.2,313.9 288.1,372 146.9,58.2 303.2,33.2 464.6,-74.3 115.8,-77 223.7,-187.9 328,-295.2 141.2,-145.2 317,-326 412.9,-288.1 95.9,38 100.5,290.1 104.1,492.6 2.7,149.6 5.5,304.3 37.3,439.7 44.2,188.8 141.2,314 288.1,372.1 146.8,58.1 303.2,33.1 464.6,-74.3 115.8,-77.1 223.6,-188 328,-295.2 141.2,-145.3 317,-326 412.9,-288.1 95.9,37.9 100.5,290 104.2,492.6 2.7,149.6 5.5,304.33 37.2,439.71 44.3,188.78 141.2,313.96 288.1,372.06 l 128.7,-325.46 c -95.8,-37.93 -100.4,-290.01 -104.1,-492.61 -2.7,-149.6 -5.5,-304.3 -37.2,-439.7 -44.3,-188.8 -141.2,-314 -288.1,-372.1"
         style="fill:#ef2e5a;fill-opacity:1;fill-rule:nonzero;stroke:none"
         id="path144" />
      <path
         d="m 14566.9,7150.2 c -146.9,-58.1 -303.2,-33.1 -464.7,74.4 -115.7,77 -223.6,187.9 -327.9,295.2 -141.3,145.2 -317.1,326 -413,288.1 -95.9,-38 -100.4,-290.1 -104.1,-492.7 -2.7,-149.6 -5.5,-304.3 -37.3,-439.7 -44.2,-188.7 -141.1,-313.9 -288,-372 -146.9,-58.1 -303.2,-33.1 -464.7,74.3 -115.7,77 -223.6,188 -327.9,295.2 -141.3,145.3 -317.1,326 -412.9,288.1 -95.9,-37.9 -100.5,-290 -104.2,-492.6 -2.7,-149.6 -5.5,-304.3 -37.2,-439.7 -44.3,-188.8 -141.2,-314 -288.1,-372.1 -146.9,-58.1 -303.2,-33.1 -464.6,74.4 -115.8,77 -223.6,187.9 -328,295.2 -141.2,145.2 -317,326 -412.9,288.1 l -128.75,325.4 c 146.85,58.1 303.25,33.1 464.65,-74.3 115.8,-77 223.6,-187.9 328,-295.2 141.2,-145.3 317,-326 412.9,-288.1 95.9,37.9 100.4,290 104.1,492.6 2.7,149.6 5.5,304.3 37.2,439.7 44.3,188.8 141.2,314 288.1,372.1 146.9,58.1 303.2,33.1 464.6,-74.4 115.8,-77 223.7,-187.9 328,-295.2 141.3,-145.2 317,-326 412.9,-288.1 95.9,38 100.5,290.1 104.1,492.7 2.8,149.6 5.6,304.3 37.3,439.6 44.3,188.8 141.2,314.01 288.1,372.11 146.9,58.11 303.2,33.11 464.6,-74.31 115.8,-77 223.7,-188 328,-295.2 141.2,-145.3 317,-326 412.9,-288.1 95.9,37.9 100.5,290.1 104.2,492.6 2.7,149.65 5.5,304.35 37.3,439.73 44.2,188.78 141.1,313.95 288,372.06 l 128.8,-325.46 c -95.9,-37.94 -100.5,-290.05 -104.2,-492.63 -2.7,-149.6 -5.5,-304.3 -37.2,-439.7 -44.3,-188.8 -141.2,-314 -288.1,-372.1"
         style="fill:#000000;fill-opacity:1;fill-rule:nonzero;stroke:none"
         id="path146" />
      <path
         d="m 22239.6,3652.1 c -146.9,-58.1 -303.3,-33.1 -464.7,74.3 -115.7,77 -223.6,187.9 -327.9,295.2 -141.3,145.2 -317.1,326 -413,288.1 -95.9,-38 -100.5,-290.1 -104.1,-492.7 -2.8,-149.6 -5.5,-304.3 -37.3,-439.6 -44.3,-188.8 -141.2,-314 -288.1,-372.1 -146.8,-58.1 -303.2,-33.1 -464.6,74.3 -115.7,77 -223.6,188 -327.9,295.2 -141.3,145.3 -317.1,326 -413,288.1 -95.9,-37.9 -100.4,-290 -104.1,-492.6 -2.7,-149.6 -5.5,-304.3 -37.2,-439.7 -44.3,-188.8 -141.2,-313.9 -288.1,-372 -146.9,-58.1 -303.2,-33.1 -464.6,74.3 -115.8,77 -223.7,187.9 -328,295.2 -141.2,145.2 -317,326 -412.9,288.1 l -128.8,325.4 c 146.9,58.1 303.2,33.1 464.7,-74.3 115.7,-77 223.6,-187.9 327.9,-295.2 141.3,-145.2 317.1,-326 413,-288.1 95.8,38 100.4,290.1 104.1,492.6 2.7,149.6 5.5,304.3 37.2,439.7 44.3,188.8 141.2,314 288.1,372.1 146.9,58.1 303.2,33.1 464.6,-74.3 115.8,-77.1 223.7,-188 328,-295.3 141.2,-145.2 317,-326 412.9,-288 95.9,37.9 100.5,290 104.1,492.6 2.7,149.6 5.5,304.3 37.3,439.7 44.2,188.7 141.2,313.9 288,372 146.9,58.1 303.3,33.1 464.7,-74.3 115.8,-77 223.6,-187.9 328,-295.2 141.2,-145.2 317,-326 412.9,-288.1 95.9,38 100.5,290.1 104.2,492.7 2.7,149.6 5.5,304.3 37.2,439.6 44.3,188.8 141.2,314 288.1,372.1 l 128.7,-325.5 c -95.9,-37.9 -100.4,-290 -104.1,-492.6 -2.7,-149.6 -5.5,-304.3 -37.3,-439.7 -44.2,-188.7 -141.1,-313.9 -288,-372"
         style="fill:#ef2e5a;fill-opacity:1;fill-rule:nonzero;stroke:none"
         id="path148" />
      <path
         d="m 22008.4,3914 c -146.9,-58.1 -303.2,-33.1 -464.7,74.3 -115.7,77 -223.6,187.9 -327.9,295.2 -141.3,145.2 -317.1,326 -413,288.1 -95.9,-38 -100.4,-290.1 -104.1,-492.6 -2.7,-149.7 -5.5,-304.3 -37.3,-439.7 -44.2,-188.8 -141.2,-314 -288,-372.1 -146.9,-58.1 -303.3,-33.1 -464.7,74.3 -115.7,77.1 -223.6,188 -327.9,295.2 -141.3,145.3 -317.1,326.1 -413,288.1 -95.8,-37.9 -100.4,-290 -104.1,-492.6 -2.7,-149.6 -5.5,-304.3 -37.2,-439.7 -44.3,-188.7 -141.2,-313.9 -288.1,-372 -146.9,-58.1 -303.2,-33.1 -464.6,74.3 -115.8,77 -223.7,187.9 -328,295.2 -141.2,145.3 -317,326 -412.9,288.1 l -128.7,325.5 c 146.8,58.1 303.2,33.1 464.6,-74.4 115.8,-77 223.6,-187.9 327.9,-295.2 141.3,-145.2 317.1,-326 413,-288.1 95.9,38 100.4,290.1 104.1,492.6 2.7,149.7 5.5,304.4 37.2,439.7 44.3,188.8 141.2,314 288.1,372.1 146.9,58.1 303.2,33.1 464.6,-74.3 115.8,-77.1 223.7,-188 328,-295.2 141.2,-145.3 317,-326.1 412.9,-288.1 95.9,37.9 100.5,290 104.1,492.6 2.8,149.6 5.5,304.3 37.3,439.7 44.3,188.8 141.2,313.9 288.1,372 146.8,58.1 303.2,33.1 464.6,-74.3 115.8,-77 223.7,-187.9 328,-295.2 141.2,-145.2 317,-326 412.9,-288.1 95.9,38 100.5,290.1 104.2,492.7 2.7,149.6 5.5,304.3 37.2,439.7 44.3,188.7 141.2,313.9 288.1,372 l 128.8,-325.4 c -95.9,-38 -100.5,-290.1 -104.2,-492.7 -2.7,-149.6 -5.5,-304.3 -37.2,-439.6 -44.3,-188.8 -141.2,-314 -288.1,-372.1"
         style="fill:#000000;fill-opacity:1;fill-rule:nonzero;stroke:none"
         id="path150" />
      <path
         d="m 19735.1,7452.9 c 0,-588.4 477,-1065.4 1065.3,-1065.4 v 0 c 0,588.4 -476.9,1065.4 -1065.3,1065.4 v 0"
         style="fill:#ef2e5a;fill-opacity:1;fill-rule:nonzero;stroke:none"
         id="path152" />
      <path
         d="m 20800.4,8518.17 c -588.3,0 -1065.3,-476.96 -1065.3,-1065.27 v 0 c 588.4,0 1065.3,476.9 1065.3,1065.27 v 0"
         style="fill:#437ef2;fill-opacity:1;fill-rule:nonzero;stroke:none"
         id="path154" />
      <path
         d="m 20800.4,6387.5 c 588.4,0 1065.4,477 1065.4,1065.4 v 0 c -588.4,0 -1065.4,-477 -1065.4,-1065.4 v 0"
         style="fill:#fddc01;fill-opacity:1;fill-rule:nonzero;stroke:none"
         id="path156" />
      <path
         d="m 20800.4,8518.17 v 0 c 0,-588.37 477,-1065.27 1065.4,-1065.27 v 0 c 0,588.31 -477,1065.27 -1065.4,1065.27"
         style="fill:#e397b3;fill-opacity:1;fill-rule:nonzero;stroke:none"
         id="path158" />
      <path
         d="m 20800.4,8420.73 c -533.7,0 -967.9,-434.23 -967.9,-967.83 0,-533.7 434.2,-967.9 967.9,-967.9 533.7,0 967.9,434.2 967.9,967.9 0,533.6 -434.2,967.83 -967.9,967.83 z m 0,-2272.83 c -719.5,0 -1304.9,585.4 -1304.9,1305 0,719.5 585.4,1304.91 1304.9,1304.91 719.6,0 1305,-585.41 1305,-1304.91 0,-719.6 -585.4,-1305 -1305,-1305"
         style="fill:#000000;fill-opacity:1;fill-rule:nonzero;stroke:none"
         id="path160" />
      <path
         d="m 2944,13768.9 c 0,-588.3 476.96,-1065.3 1065.32,-1065.3 v 0 c 0,588.4 -476.96,1065.3 -1065.32,1065.3 v 0"
         style="fill:#ef2e5a;fill-opacity:1;fill-rule:nonzero;stroke:none"
         id="path162" />
      <path
         d="m 4009.32,14834.3 c -588.36,0 -1065.32,-477 -1065.32,-1065.4 v 0 c 588.36,0 1065.32,477 1065.32,1065.4 v 0"
         style="fill:#437ef2;fill-opacity:1;fill-rule:nonzero;stroke:none"
         id="path164" />
      <path
         d="m 4009.32,12703.6 c 588.37,0 1065.33,477 1065.33,1065.3 v 0 c -588.37,0 -1065.33,-476.9 -1065.33,-1065.3 v 0"
         style="fill:#fddc01;fill-opacity:1;fill-rule:nonzero;stroke:none"
         id="path166" />
      <path
         d="m 4009.32,14834.3 v 0 c 0,-588.4 476.96,-1065.4 1065.33,-1065.4 v 0 c 0,588.4 -476.96,1065.4 -1065.33,1065.4"
         style="fill:#e397b3;fill-opacity:1;fill-rule:nonzero;stroke:none"
         id="path168" />
      <path
         d="m 4009.32,14736.8 c -533.69,0 -967.88,-434.2 -967.88,-967.9 0,-533.7 434.19,-967.9 967.88,-967.9 533.7,0 967.89,434.2 967.89,967.9 0,533.7 -434.19,967.9 -967.89,967.9 z m 0,-2272.8 c -719.55,0 -1304.96,585.4 -1304.96,1304.9 0,719.6 585.41,1305 1304.96,1305 719.56,0 1304.97,-585.4 1304.97,-1305 0,-719.5 -585.41,-1304.9 -1304.97,-1304.9"
         style="fill:#000000;fill-opacity:1;fill-rule:nonzero;stroke:none"
         id="path170" />
      <path
         d="m 12267.6,4416.6 -601,-52.1 272.1,547.6 z"
         style="fill:#437ef2;fill-opacity:1;fill-rule:nonzero;stroke:none"
         id="path172" />
      <path
         d="m 12626.4,3876.2 -1256.6,-108.9 15.6,31.2 109.9,221.2 979.4,84.9 151.7,-228.4"
         style="fill:#fddc01;fill-opacity:1;fill-rule:nonzero;stroke:none"
         id="path174" />
      <path
         d="m 12985.2,3335.7 -1912.1,-165.7 125.4,252.5 1635,141.7 151.7,-228.5"
         style="fill:#e397b3;fill-opacity:1;fill-rule:nonzero;stroke:none"
         id="path176" />
      <path
         d="m 13314.1,2840.2 -1241,-77.6 -1241.1,-77.6 69.7,140.2 2290.5,198.5 121.9,-183.5"
         style="fill:#ef2e5a;fill-opacity:1;fill-rule:nonzero;stroke:none"
         id="path178" />
      <path
         d="M 11142.9,2760.8 13099.3,2930.6 11974,4540 Z m 2590.6,-126.4 -3164.3,-274.7 1344.2,2877.7 1820.1,-2603"
         style="fill:#000000;fill-opacity:1;fill-rule:nonzero;stroke:none"
         id="path180" />
      <path
         d="m 12687.6,11328.5 -585.6,144.5 434,430.6 z"
         style="fill:#437ef2;fill-opacity:1;fill-rule:nonzero;stroke:none"
         id="path182" />
      <path
         d="m 12853,10701.3 -1224.6,302 24.8,24.6 175.4,174 954.5,-235.5 69.9,-265.1"
         style="fill:#fddc01;fill-opacity:1;fill-rule:nonzero;stroke:none"
         id="path184" />
      <path
         d="m 13018.4,10074 -1863.4,459.6 200.2,198.6 1593.3,-393 69.9,-265.2"
         style="fill:#e397b3;fill-opacity:1;fill-rule:nonzero;stroke:none"
         id="path186" />
      <path
         d="m 13170,9498.85 -1199.8,326.74 -1199.8,326.61 111.2,110.3 2232.2,-550.59 56.2,-213.06"
         style="fill:#ef2e5a;fill-opacity:1;fill-rule:nonzero;stroke:none"
         id="path188" />
      <path
         d="m 11089.1,10123.8 1906.7,-470.08 -546.3,1886.28 z m 2411.5,-955.01 -3083.9,760.24 2200.4,2290.57 883.5,-3050.81"
         style="fill:#000000;fill-opacity:1;fill-rule:nonzero;stroke:none"
         id="path190" />
      <path
         d="M 5363.21,3196.3 C 5338.5,2558.1 4801.16,2060.9 4163.03,2085.6 c -638.13,24.7 -1135.41,562 -1110.69,1200.2 24.71,638.1 562.05,1135.4 1200.18,1110.6 638.13,-24.7 1135.41,-562 1110.69,-1200.1"
         style="fill:#ef2e5a;fill-opacity:1;fill-rule:nonzero;stroke:none"
         id="path192" />
      <path
         d="m 4857.55,2728.3 c -14.3,-369.3 -325.25,-657 -694.52,-642.7 -369.28,14.3 -657.04,325.2 -642.74,694.5 14.3,369.3 325.25,657 694.53,642.7 369.27,-14.3 657.03,-325.2 642.73,-694.5"
         style="fill:#4bc0d2;fill-opacity:1;fill-rule:nonzero;stroke:none"
         id="path194" />
      <path
         d="m 4577.3,2469 c -8.53,-220.3 -194,-392 -414.27,-383.4 -220.27,8.5 -391.92,194 -383.39,414.2 8.53,220.3 194.01,392 414.28,383.4 220.27,-8.5 391.91,-194 383.38,-414.2"
         style="fill:#437ef2;fill-opacity:1;fill-rule:nonzero;stroke:none"
         id="path196" />
      <path
         d="m 5533.47,3224.8 h -350 c 0,554.1 -450.84,1005 -1005,1005 -554.16,0 -1005,-450.9 -1005,-1005 h -350 c 0,747.1 607.85,1355 1355,1355 747.15,0 1355,-607.9 1355,-1355"
         style="fill:#000000;fill-opacity:1;fill-rule:nonzero;stroke:none"
         id="path198" />
      <path
         d="M 9168.32,10158.5 C 9143.61,9520.41 8606.26,9023.13 7968.13,9047.85 7330,9072.56 6832.73,9609.9 6857.45,10248 c 24.71,638.2 562.05,1135.4 1200.18,1110.7 638.13,-24.7 1135.41,-562 1110.69,-1200.2"
         style="fill:#ef2e5a;fill-opacity:1;fill-rule:nonzero;stroke:none"
         id="path200" />
      <path
         d="m 8662.66,9690.58 c -14.3,-369.27 -325.25,-657.04 -694.53,-642.73 -369.27,14.3 -657.03,325.25 -642.73,694.52 14.3,369.33 325.25,657.03 694.53,642.73 369.27,-14.3 657.03,-325.2 642.73,-694.52"
         style="fill:#4bc0d2;fill-opacity:1;fill-rule:nonzero;stroke:none"
         id="path202" />
      <path
         d="m 8382.41,9431.24 c -8.53,-220.27 -194.01,-391.92 -414.28,-383.39 -220.26,8.53 -391.91,194.01 -383.38,414.27 8.53,220.27 194.01,391.92 414.28,383.39 220.27,-8.53 391.91,-194.01 383.38,-414.27"
         style="fill:#437ef2;fill-opacity:1;fill-rule:nonzero;stroke:none"
         id="path204" />
      <path
         d="m 9338.58,10187 h -350 c 0,554.2 -450.84,1005 -1005,1005 -554.16,0 -1005,-450.8 -1005,-1005 h -350 c 0,747.2 607.86,1355 1355,1355 747.15,0 1355,-607.8 1355,-1355"
         style="fill:#000000;fill-opacity:1;fill-rule:nonzero;stroke:none"
         id="path206" />
      <path
         d="m 15616.8,3440.9 c -273.4,68 -439.9,344.8 -371.9,618.3 68.1,273.4 344.9,439.9 618.3,371.8 273.4,-68 439.9,-344.8 371.9,-618.3 -68.1,-273.4 -344.9,-439.9 -618.3,-371.8 z m -721.4,1899.3 -559.6,-2248.8 2248.8,-559.7 559.6,2248.8 -2248.8,559.7"
         style="fill:#fddc01;fill-opacity:1;fill-rule:nonzero;stroke:none"
         id="path208" />
      <path
         d="m 17305.8,4676.2 -192.4,315 -1312.1,-801.6 -801.6,1312.1 -314.9,-192.3 801.6,-1312.2 -1312.2,-801.6 192.4,-314.9 1312.1,801.6 801.6,-1312.2 314.9,192.4 -801.6,1312.2 1312.2,801.5"
         style="fill:#000000;fill-opacity:1;fill-rule:nonzero;stroke:none"
         id="path210" />
      <path
         d="m 13377.4,13614.9 c -273.4,68.1 -439.9,344.9 -371.8,618.3 68,273.4 344.8,439.9 618.2,371.9 273.5,-68.1 440,-344.9 371.9,-618.3 -68.1,-273.4 -344.9,-439.9 -618.3,-371.9 z m -721.3,1899.3 -559.7,-2248.8 2248.8,-559.6 559.7,2248.8 -2248.8,559.6"
         style="fill:#e397b3;fill-opacity:1;fill-rule:nonzero;stroke:none"
         id="path212" />
      <path
         d="m 15066.4,14850.3 -192.3,314.9 -1312.2,-801.6 -801.6,1312.2 -314.9,-192.4 801.6,-1312.1 -1312.2,-801.6 192.4,-314.9 1312.2,801.6 801.5,-1312.2 314.9,192.4 -801.5,1312.1 1312.1,801.6"
         style="fill:#000000;fill-opacity:1;fill-rule:nonzero;stroke:none"
         id="path214" />
    </g>
  </g>
</svg>
